<?xml version="1.0" encoding="utf-8"?>
<svg viewBox="18.339 28.927 170.1 198.5" xmlns="http://www.w3.org/2000/svg">
  <path d="M265.1,382.7V212.6c0-3.9,3.2-7.1,7.1-7.1v0h7v-7.1h-70.9v7.1h7.1v0c3.9,0,7.1,3.2,7.1,7.1h0v170.1h0   c0,3.9-3.2,7.1-7.1,7.1h-7.1v7.1h70.9v-7.1h-7C268.3,389.8,265.1,386.6,265.1,382.7z" transform="matrix(1, 0, 0, 1, -189.9608, -169.473206)"/>
  <path d="M321.7,198.4v79.4h-21.2c-15.7,0-28.3,12.7-28.3,28.3h49.5v90.7h56.7v-14.2h-7.1v0c-3.9,0-7.1-3.2-7.1-7.1V219.7   c0-3.9,3.2-7.1,7.1-7.1v0h7.1v-14.2H321.7z" transform="matrix(1, 0, 0, 1, -189.9608, -169.473206)"/>
</svg>