<svg xmlns="http://www.w3.org/2000/svg" xmlns:xlink="http://www.w3.org/1999/xlink" version="1.1" id="Camada_1" x="0px" y="0px" style="enable-background:new 0 0 841.9 595.3;" xml:space="preserve" viewBox="208.3 198.4 425.2 198.5">
<g>
	<path d="M265.1,382.7V212.6c0-3.9,3.2-7.1,7.1-7.1v0h7v-7.1h-70.9v7.1h7.1v0c3.9,0,7.1,3.2,7.1,7.1h0v170.1h0   c0,3.9-3.2,7.1-7.1,7.1h-7.1v7.1h70.9v-7.1h-7C268.3,389.8,265.1,386.6,265.1,382.7z"/>
	<path d="M321.7,198.4v79.4h-21.2c-15.7,0-28.3,12.7-28.3,28.3h49.5v90.7h56.7v-14.2h-7.1v0c-3.9,0-7.1-3.2-7.1-7.1V219.7   c0-3.9,3.2-7.1,7.1-7.1v0h7.1v-14.2H321.7z"/>
	<rect x="406.8" y="283.5" width="9.2" height="41.8"/>
	<path d="M452,325.2v-18.6c0-1.9-0.2-3.6-0.5-5.1c-0.3-1.5-0.9-2.8-1.7-3.9c-0.8-1.1-1.9-1.9-3.4-2.5c-1.4-0.6-3.2-0.9-5.5-0.9   c-1.8,0-3.5,0.4-5.1,1.2c-1.7,0.8-3,2.1-4.1,3.8h-0.2V295h-7.9v30.2h8.3v-15.8c0-3.1,0.5-5.3,1.5-6.6c1-1.3,2.7-2,4.9-2   c2,0,3.4,0.6,4.2,1.8c0.8,1.2,1.2,3.1,1.2,5.6v17.1H452z"/>
	<path d="M483.1,322.8c2.6-2.1,4.1-5.2,4.7-9.2h-8c-0.3,1.9-0.9,3.4-2,4.5c-1.1,1.1-2.6,1.7-4.6,1.7c-1.3,0-2.4-0.3-3.3-0.9   c-0.9-0.6-1.6-1.3-2.1-2.3c-0.5-0.9-0.9-1.9-1.1-3.1c-0.2-1.1-0.4-2.2-0.4-3.3c0-1.1,0.1-2.3,0.4-3.4c0.2-1.1,0.6-2.2,1.2-3.2   c0.6-1,1.3-1.7,2.2-2.3c0.9-0.6,2-0.9,3.3-0.9c3.5,0,5.6,1.7,6.1,5.2h8.1c-0.1-1.9-0.6-3.6-1.4-5.1c-0.8-1.4-1.9-2.6-3.2-3.6   c-1.3-1-2.8-1.7-4.4-2.1c-1.7-0.5-3.4-0.7-5.2-0.7c-2.5,0-4.6,0.4-6.6,1.2c-1.9,0.8-3.5,2-4.9,3.4c-1.3,1.5-2.3,3.2-3,5.2   c-0.7,2-1,4.2-1,6.5c0,2.3,0.4,4.3,1.1,6.2c0.7,1.9,1.8,3.5,3.1,4.9c1.3,1.4,2.9,2.4,4.8,3.2c1.9,0.8,4,1.1,6.2,1.1   C477.2,326,480.5,324.9,483.1,322.8z"/>
	<path d="M501.3,311.6c0-1.4,0.1-2.6,0.4-3.8c0.3-1.2,0.7-2.2,1.4-3.1c0.6-0.9,1.5-1.6,2.5-2.1c1.1-0.5,2.3-0.8,3.9-0.8   c0.5,0,1,0,1.6,0.1c0.5,0.1,1,0.1,1.4,0.2v-7.7c-0.7-0.2-1.3-0.3-1.8-0.3c-1.1,0-2.1,0.2-3,0.5c-1,0.3-1.9,0.8-2.7,1.3   c-0.9,0.6-1.6,1.2-2.3,2c-0.7,0.8-1.2,1.7-1.6,2.6h-0.1V295H493v30.2h8.3V311.6z"/>
	<polygon points="531.1,282.9 521.9,282.9 516.3,291.2 522,291.2  "/>
	<rect x="516.5" y="295" width="8.3" height="30.2"/>
	<polygon points="544.2,315.6 544.1,315.6 537.7,295 529,295 539.4,325.2 548.6,325.2 558.8,295 550.6,295  "/>
	<path d="M583.6,315.9c-0.3,0.9-1,1.8-2.2,2.7c-1.2,0.8-2.7,1.3-4.3,1.3c-2.3,0-4.1-0.6-5.4-1.8c-1.2-1.2-1.9-3.2-2-5.8h21.8   c0.2-2.3,0-4.6-0.6-6.7c-0.5-2.1-1.4-4.1-2.7-5.7c-1.2-1.7-2.8-3-4.7-4c-1.9-1-4.2-1.5-6.7-1.5c-2.3,0-4.4,0.4-6.3,1.2   c-1.9,0.8-3.5,1.9-4.9,3.4c-1.4,1.4-2.4,3.1-3.2,5.1c-0.7,1.9-1.1,4.1-1.1,6.3c0,2.3,0.4,4.5,1.1,6.4c0.7,2,1.7,3.6,3.1,5   c1.3,1.4,2.9,2.5,4.9,3.2c1.9,0.8,4.1,1.1,6.4,1.1c3.4,0,6.4-0.8,8.8-2.3c2.4-1.6,4.2-4.2,5.4-7.8H583.6z M570,304.9   c0.2-0.7,0.6-1.4,1.1-2.1c0.5-0.7,1.2-1.2,2.1-1.7c0.9-0.4,2-0.7,3.3-0.7c2,0,3.5,0.5,4.5,1.6c1,1.1,1.7,2.7,2.1,4.8h-13.5   C569.7,306.3,569.8,305.6,570,304.9z"/>
	<rect x="596.9" y="283.5" width="8.3" height="41.8"/>
	<polygon points="432.9,356.2 416,356.2 416,340.2 406.8,340.2 406.8,381.9 416,381.9 416,363.9 432.9,363.9 432.9,381.9 442,381.9    442,340.2 432.9,340.2  "/>
	<rect x="451.7" y="351.7" width="8.3" height="30.2"/>
	<rect x="451.7" y="340.2" width="8.3" height="6.8"/>
	<path d="M492.3,366.3c-0.9-0.6-1.9-1.2-3.1-1.5c-1.2-0.4-2.3-0.7-3.5-1c-1.2-0.3-2.3-0.5-3.5-0.8c-1.1-0.2-2.1-0.5-3-0.8   c-0.9-0.3-1.6-0.7-2.1-1.1c-0.5-0.5-0.8-1.1-0.8-1.8c0-0.6,0.2-1.1,0.5-1.5c0.3-0.4,0.7-0.7,1.1-0.8c0.4-0.2,0.9-0.3,1.5-0.4   c0.5-0.1,1.1-0.1,1.5-0.1c1.5,0,2.8,0.3,3.9,0.8c1.1,0.6,1.7,1.6,1.8,3.2h7.9c-0.2-1.9-0.6-3.4-1.4-4.7c-0.8-1.2-1.8-2.2-3-3   c-1.2-0.7-2.6-1.3-4.1-1.6c-1.5-0.3-3.1-0.5-4.8-0.5s-3.2,0.1-4.8,0.4c-1.6,0.3-3,0.8-4.2,1.5c-1.2,0.7-2.3,1.7-3,3   c-0.8,1.2-1.1,2.8-1.1,4.8c0,1.3,0.3,2.4,0.8,3.4c0.5,0.9,1.3,1.7,2.2,2.3c0.9,0.6,1.9,1.1,3.1,1.5c1.1,0.4,2.3,0.7,3.5,1   c3,0.6,5.3,1.2,6.9,1.9c1.7,0.6,2.5,1.6,2.5,2.8c0,0.7-0.2,1.4-0.5,1.8c-0.4,0.5-0.8,0.9-1.3,1.2c-0.5,0.3-1.1,0.5-1.8,0.6   c-0.6,0.1-1.3,0.2-1.8,0.2c-0.8,0-1.6-0.1-2.4-0.3c-0.8-0.2-1.4-0.5-2-0.9c-0.6-0.4-1.1-0.9-1.4-1.6c-0.4-0.6-0.6-1.4-0.6-2.3h-7.9   c0.1,2,0.5,3.7,1.4,5.1c0.8,1.3,1.9,2.4,3.2,3.2c1.3,0.8,2.8,1.4,4.5,1.8c1.7,0.4,3.4,0.5,5.1,0.5c1.7,0,3.4-0.2,5.1-0.5   c1.7-0.3,3.1-0.9,4.4-1.7c1.3-0.8,2.3-1.9,3.1-3.2c0.8-1.3,1.2-3,1.2-5c0-1.4-0.3-2.6-0.8-3.5C494,367.7,493.2,366.9,492.3,366.3z"/>
	<path d="M512.9,342.6h-8.3v9.1h-5v5.6h5v17.8c0,1.5,0.3,2.7,0.8,3.7c0.5,0.9,1.2,1.7,2.1,2.2c0.9,0.5,1.9,0.8,3,1   c1.1,0.2,2.4,0.3,3.7,0.3c0.8,0,1.7,0,2.5-0.1c0.9,0,1.6-0.1,2.3-0.2v-6.4c-0.4,0.1-0.8,0.1-1.2,0.2c-0.4,0-0.9,0.1-1.3,0.1   c-1.4,0-2.3-0.2-2.8-0.7c-0.5-0.5-0.7-1.4-0.7-2.8v-15h6.1v-5.6h-6.1V342.6z"/>
	<polygon points="550.3,339.6 541.1,339.6 535.5,347.9 541.3,347.9  "/>
	<path d="M551.3,355.2c-1.4-1.4-3-2.5-4.9-3.2c-1.9-0.8-4.1-1.1-6.5-1.1c-2.4,0-4.5,0.4-6.4,1.1c-1.9,0.8-3.5,1.8-4.9,3.2   c-1.4,1.4-2.4,3.1-3.2,5c-0.7,2-1.1,4.2-1.1,6.6c0,2.4,0.4,4.6,1.1,6.5c0.7,2,1.8,3.6,3.2,5c1.4,1.4,3,2.4,4.9,3.2   c1.9,0.7,4.1,1.1,6.4,1.1c2.4,0,4.5-0.4,6.5-1.1c1.9-0.7,3.6-1.8,4.9-3.2c1.4-1.4,2.4-3.1,3.2-5c0.7-1.9,1.1-4.1,1.1-6.5   c0-2.4-0.4-4.6-1.1-6.6C553.7,358.3,552.7,356.6,551.3,355.2z M546.9,370.4c-0.2,1.2-0.6,2.2-1.2,3.1c-0.6,0.9-1.3,1.6-2.3,2.2   c-1,0.5-2.1,0.8-3.5,0.8c-1.4,0-2.6-0.3-3.5-0.8c-0.9-0.5-1.7-1.3-2.3-2.2c-0.6-0.9-1-1.9-1.2-3.1c-0.2-1.1-0.4-2.3-0.4-3.5   c0-1.2,0.1-2.4,0.4-3.6c0.2-1.2,0.6-2.2,1.2-3.1c0.6-0.9,1.3-1.6,2.3-2.2c0.9-0.6,2.1-0.8,3.5-0.8c1.4,0,2.6,0.3,3.5,0.8   c1,0.6,1.7,1.3,2.3,2.2c0.6,0.9,1,1.9,1.2,3.1c0.2,1.2,0.4,2.4,0.4,3.6C547.3,368,547.1,369.2,546.9,370.4z"/>
	<path d="M577.8,351.3c-1,0.3-1.9,0.8-2.7,1.3c-0.9,0.6-1.6,1.2-2.3,2c-0.7,0.8-1.2,1.7-1.6,2.6h-0.1v-5.6h-7.9v30.2h8.3v-13.6   c0-1.4,0.1-2.6,0.4-3.8c0.3-1.2,0.7-2.2,1.4-3.1c0.6-0.9,1.5-1.6,2.5-2.1c1.1-0.5,2.3-0.8,3.9-0.8c0.5,0,1,0,1.6,0.1   c0.5,0.1,1,0.1,1.4,0.2v-7.7c-0.7-0.2-1.3-0.3-1.8-0.3C579.8,350.9,578.8,351,577.8,351.3z"/>
	<rect x="588.4" y="351.7" width="8.3" height="30.2"/>
	<rect x="588.4" y="340.2" width="8.3" height="6.8"/>
	<path d="M632.7,379.1c-0.2-1.2-0.2-2.6-0.2-3.9v-15.7c0-1.8-0.4-3.3-1.2-4.4c-0.8-1.1-1.9-2-3.2-2.6c-1.3-0.6-2.7-1-4.3-1.3   c-1.6-0.2-3.1-0.3-4.6-0.3c-1.7,0-3.3,0.2-5,0.5c-1.7,0.3-3.1,0.9-4.5,1.7c-1.3,0.8-2.4,1.8-3.3,3.1c-0.9,1.3-1.3,2.9-1.5,4.9h8.3   c0.2-1.6,0.7-2.8,1.6-3.5c0.9-0.7,2.2-1.1,3.9-1.1c0.7,0,1.4,0,2.1,0.1c0.6,0.1,1.2,0.3,1.7,0.6c0.5,0.3,0.9,0.7,1.2,1.2   c0.3,0.5,0.4,1.2,0.4,2.1c0,0.9-0.2,1.5-0.8,2c-0.5,0.4-1.3,0.8-2.2,1c-0.9,0.2-2,0.4-3.2,0.5c-1.2,0.1-2.4,0.3-3.7,0.5   c-1.2,0.2-2.5,0.5-3.7,0.8c-1.2,0.3-2.3,0.8-3.3,1.5c-1,0.7-1.7,1.5-2.3,2.7s-0.9,2.5-0.9,4.2c0,1.6,0.3,2.9,0.8,4   c0.5,1.1,1.3,2.1,2.2,2.8c0.9,0.7,2,1.3,3.3,1.6c1.2,0.4,2.6,0.5,4,0.5c1.9,0,3.7-0.3,5.5-0.8c1.8-0.5,3.4-1.5,4.7-2.9   c0,0.5,0.1,1,0.2,1.5c0.1,0.5,0.2,1,0.4,1.4h8.4C633.2,381.3,632.9,380.4,632.7,379.1z M624.2,370.2c0,0.5,0,1.1-0.1,1.9   c-0.1,0.8-0.4,1.5-0.8,2.3c-0.4,0.8-1.1,1.4-2,2c-0.9,0.5-2.2,0.8-3.8,0.8c-0.7,0-1.3-0.1-1.9-0.2c-0.6-0.1-1.2-0.3-1.6-0.6   c-0.5-0.3-0.8-0.7-1.1-1.2c-0.3-0.5-0.4-1.1-0.4-1.9c0-0.8,0.1-1.4,0.4-1.9c0.3-0.5,0.6-0.9,1.1-1.3c0.4-0.3,1-0.6,1.6-0.8   c0.6-0.2,1.2-0.4,1.8-0.5c0.7-0.1,1.3-0.2,2-0.3c0.7-0.1,1.3-0.2,1.9-0.3c0.6-0.1,1.2-0.3,1.7-0.4c0.5-0.2,1-0.4,1.3-0.7V370.2z"/>
</g>
</svg>